# xmcd
#
# Track frame offsets:
#	150
#	18036
#	31637
#	47037
#	59492
#	79493
#	90527
#	115100
#	134702
#	169798
#	186774
#	205831
#	215786
#	233988
#	259113
#
# Disc length: 3671 seconds
#
# Revision: 5
# Processed by: cddbd v1.5.2PL0 Copyright (c) Steve Scherf et al.
# Submitted via: EZCDAudioConverter 2.1.7.1
#
DISCID=d10e550f
DTITLE=Fairport Convention - Live At The BBC 2/4
DYEAR=2007
DGENRE=
TTITLE0=You're Gonna Need My Help
TTITLE1=Fotheringay
TTITLE2=Shattering Live Experience
TTITLE3=Cajun Woman
TTITLE4=Autopsy
TTITLE5=Si Tu Dois Partir
TTITLE6=Percy's Song
TTITLE7=Reynardine
TTITLE8=Tam Lin
TTITLE9=Sir Patrick Spens
TTITLE10=The Lark In The Morning/Rakish Paddy/Foxhunter's Jig/Toss The Feather
TTITLE10=s
TTITLE11=The Lady Is A Tramp
TTITLE12=Walk Awhile
TTITLE13=Poor Will And The Jolly Hangman
TTITLE14=Doctor Of Physick
EXTD=
EXTT0=
EXTT1=
EXTT2=
EXTT3=
EXTT4=
EXTT5=
EXTT6=
EXTT7=
EXTT8=
EXTT9=
EXTT10=
EXTT11=
EXTT12=
EXTT13=
EXTT14=
PLAYORDER=
